<?xml version="1.0" encoding="utf-8"?>
<!-- Generator: Adobe Illustrator 27.5.0, SVG Export Plug-In . SVG Version: 6.00 Build 0)  -->
<svg version="1.1" xmlns="http://www.w3.org/2000/svg" xmlns:xlink="http://www.w3.org/1999/xlink" x="0px" y="0px"
	 viewBox="0 0 500 500" style="enable-background:new 0 0 500 500;" xml:space="preserve">
<g id="BACKGROUND">
	<rect style="fill:#F3F9FF;" width="500" height="500"/>
</g>
<g id="OBJECTS">
	<g>
		<polygon style="fill:#D0D9FF;" points="216.56,358.697 190.599,373.79 160.828,357.295 141.048,368.794 170.818,385.288 
			144.857,400.381 167.539,412.948 193.501,397.856 223.272,414.35 243.052,402.851 213.281,386.357 239.243,371.264 		"/>
		<polygon style="fill:#D0D9FF;" points="333.947,408.79 373.861,385.813 357.6,376.033 317.686,399.01 		"/>
		<polygon style="fill:#D0D9FF;" points="274.092,374.202 78.11,260.79 191.318,195.452 387.299,308.863 		"/>
		<polygon style="opacity:0.48;fill:#D0D9FF;" points="134.128,394.487 125.024,410.954 97.468,406.955 90.532,419.501 
			118.088,423.5 108.984,439.967 129.979,443.014 139.083,426.547 166.639,430.545 173.575,417.999 146.019,414 155.123,397.533 		
			"/>
	</g>
	<g>
		<g>
			<g>
				<g>
					<path style="fill:#FFAE00;" d="M194.094,123.849l0.017-0.524l-6.857-4.413c-0.183-0.115-0.369-0.223-0.558-0.328l-0.183-0.107
						l-0.008,0.004c-4.362-2.314-10.232-1.841-16.694,1.992c-13.461,7.984-24.374,27.489-24.374,43.564
						c0,7.638,2.467,13.121,6.496,15.924l-0.009-0.001l0.076,0.045c0.42,0.288,5.426,3.507,5.879,3.737l1.726-0.767l2.305,1.523
						c3.525,0.274,7.588-0.781,11.918-3.35c13.462-7.984,24.374-27.489,24.374-43.564
						C198.201,131.599,196.687,126.937,194.094,123.849z M173.827,167.977c-7.37,4.372-13.345,0.78-13.345-8.021
						c0-8.802,5.975-19.48,13.345-23.852c7.37-4.371,13.345-0.78,13.345,8.022C187.172,152.926,181.197,163.605,173.827,167.977z"/>
				</g>
				<g>
					<path style="fill:#FFD600;" d="M162.237,126.405l15.254,8.139c0.522-0.132,1.033-0.225,1.527-0.268v-8.57l-9.483-5.06
						C166.989,122.188,164.538,124.142,162.237,126.405z"/>
					<path style="fill:#FFD600;" d="M169.99,183.061v-13.48c-4.93,1.159-8.659-1.705-9.379-7.503l-14.043-7.493
						c-0.734,3.206-1.131,6.391-1.131,9.452c0,2.694,0.313,5.114,0.887,7.249l22.735,12.131
						C169.366,183.307,169.677,183.187,169.99,183.061z"/>
					<path style="fill:#FFD600;" d="M160.546,158.351c0.208-2.671,0.921-5.464,2.014-8.165v-0.413l-12.081-6.446
						c-1.222,2.624-2.254,5.317-3.058,8.022L160.546,158.351z"/>
					<path style="fill:#FFD600;" d="M159.035,145.561v-2.41l-6.69-3.505c-0.343,0.624-0.674,1.254-0.995,1.888L159.035,145.561z"/>
					<path style="fill:#FFD600;" d="M168.695,135.269v-2.409l-8.424-4.413c-0.488,0.538-0.965,1.093-1.436,1.657L168.695,135.269z"
						/>
				</g>
				<g>
					<path style="fill:#FFE300;" d="M176.347,169.475c-7.37,4.371-13.345,0.78-13.345-8.022c0-8.802,5.975-19.481,13.345-23.852
						c7.371-4.371,13.346-0.78,13.346,8.021C189.693,154.424,183.717,165.103,176.347,169.475z"/>
				</g>
				<g>
					<path style="fill:#FF7C00;" d="M200.721,139.335c0-16.075-10.913-22.635-24.374-14.65
						c-13.461,7.984-24.374,27.489-24.374,43.564s10.912,22.635,24.374,14.65C189.809,174.914,200.721,155.41,200.721,139.335z
						 M163.002,161.707c0-8.802,5.975-19.481,13.345-23.852c7.371-4.372,13.346-0.781,13.346,8.021s-5.975,19.481-13.346,23.852
						C168.977,174.1,163.002,170.508,163.002,161.707z"/>
				</g>
				<g>
					<path style="fill:#FFAE00;" d="M196.057,141.847c0-12.999-8.825-18.303-19.71-11.847c-10.885,6.456-19.71,22.229-19.71,35.228
						c0,12.999,8.825,18.303,19.71,11.847C187.232,170.619,196.057,154.847,196.057,141.847z"/>
				</g>
				<path style="fill:#FFD900;" d="M189.228,128.091l-32.196,32.196c-0.259,1.675-0.395,3.33-0.395,4.942
					c0,5.097,1.361,9.004,3.666,11.49l35.735-35.735C195.831,134.343,193.236,129.851,189.228,128.091z M168.418,179.79
					c6.735-6.553,16.309-16.253,25.317-25.477c0.824-2.326,1.446-4.68,1.838-7.001l-31.806,31.806
					C165.166,179.675,166.731,179.904,168.418,179.79z"/>
			</g>
			<g>
				<path style="fill:#FF7C00;" d="M186.161,151.437c0,2.47-0.616,4.901-1.849,7.292c-1.233,2.392-2.727,4.468-4.48,6.227v3.04
					c0,0.601-0.014,1.071-0.041,1.407c-0.028,0.337-0.117,0.751-0.267,1.241c-0.151,0.491-0.398,0.94-0.74,1.349
					c-0.343,0.41-0.801,0.825-1.377,1.246c-0.575,0.421-1.035,0.679-1.377,0.771c-0.343,0.092-0.582-0.009-0.719-0.304
					c-0.137-0.295-0.22-0.584-0.247-0.864c-0.027-0.281-0.041-0.738-0.041-1.371v-2.945c-1.124,0.538-2.137,0.806-3.041,0.803
					c-0.904-0.003-1.535-0.126-1.891-0.372l-0.534-0.416c-0.575-0.433-0.863-0.887-0.863-1.362c0-0.791,0.466-2.051,1.397-3.778
					c0.548-1.002,1.11-1.716,1.685-2.137c0.658-0.482,1.465-0.519,2.425-0.114l0.206,0.087c0.848,0.582,1.808,0.48,2.877-0.302
					c2.027-1.485,3.041-3.194,3.041-5.125c0-0.696-0.384-0.954-1.15-0.772c-0.768,0.182-1.699,0.525-2.795,1.027
					c-1.096,0.502-2.192,0.901-3.288,1.197c-1.096,0.297-2.028,0.109-2.795-0.565c-0.767-0.673-1.15-1.975-1.15-3.907
					c0-1.868,0.52-3.943,1.562-6.226c1.041-2.283,2.479-4.318,4.315-6.106v-2.66c0-0.633,0.014-1.109,0.041-1.431
					c0.027-0.32,0.109-0.721,0.247-1.202c0.137-0.48,0.384-0.93,0.74-1.349c0.356-0.419,0.822-0.84,1.397-1.262
					c0.74-0.542,1.295-0.766,1.664-0.673c0.37,0.093,0.582,0.326,0.637,0.697c0.055,0.372,0.082,0.954,0.082,1.745v2.66
					c0.767-0.372,1.466-0.614,2.096-0.729c0.63-0.113,1.068-0.149,1.315-0.108l0.37,0.109l0.164,0.022
					c0.684,0.228,1.027,0.561,1.027,1.005c0,0.507-0.274,1.436-0.822,2.787c-0.74,1.809-1.494,2.994-2.26,3.556
					c-0.493,0.361-1.055,0.52-1.685,0.474c-0.055-0.022-0.179-0.059-0.37-0.109c-0.192-0.049-0.37-0.077-0.534-0.084
					c-0.164-0.006-0.425,0.067-0.781,0.216c-0.357,0.151-0.781,0.406-1.274,0.767c-0.521,0.382-1.014,0.941-1.48,1.678
					c-0.466,0.738-0.699,1.423-0.699,2.055c0,0.76,0.281,1.148,0.843,1.164c0.561,0.016,1.254-0.206,2.075-0.665
					c0.822-0.46,1.726-0.885,2.713-1.275c0.986-0.39,1.89-0.664,2.712-0.823c0.822-0.158,1.514,0.118,2.076,0.83
					C185.88,148.563,186.161,149.758,186.161,151.437z"/>
			</g>
		</g>
		<g>
			<g>
				<path style="opacity:0.49;fill:#FFAE00;" d="M195.927,152.472c0-4.882,1.843-10.339,4.738-14.979
					c-0.38-6.909-2.911-11.841-6.829-14.338c-7.705,9.46-12.954,22.252-12.954,33.398c0,7.638,2.467,13.121,6.496,15.924
					l-0.009-0.001l0.076,0.045c0.049,0.033,0.164,0.109,0.322,0.212c3.66-4.493,6.762-9.737,9.014-15.201
					C196.238,156.118,195.927,154.433,195.927,152.472z"/>
				<g>
					<path style="fill:#FFAE00;" d="M233.263,116.794l0.017-0.524l-6.857-4.413c-0.183-0.115-0.369-0.223-0.558-0.328l-0.183-0.107
						l-0.008,0.004c-4.362-2.314-10.232-1.841-16.694,1.992c-13.461,7.984-24.374,27.489-24.374,43.564
						c0,7.637,2.467,13.121,6.496,15.923l-0.009-0.001l0.076,0.045c0.42,0.288,5.426,3.507,5.879,3.737l1.726-0.767l2.305,1.523
						c3.525,0.274,7.588-0.781,11.918-3.35c13.462-7.984,24.374-27.489,24.374-43.564
						C237.37,124.544,235.856,119.881,233.263,116.794z M212.996,160.922c-7.37,4.372-13.345,0.78-13.345-8.021
						c0-8.802,5.975-19.481,13.345-23.852c7.37-4.371,13.345-0.78,13.345,8.021C226.341,145.871,220.366,156.55,212.996,160.922z"/>
				</g>
				<g>
					<path style="fill:#FFD600;" d="M201.406,119.349l15.253,8.139c0.522-0.132,1.033-0.225,1.527-0.268v-8.571l-9.483-5.06
						C206.158,115.133,203.707,117.087,201.406,119.349z"/>
					<path style="fill:#FFD600;" d="M209.159,176.006v-13.48c-4.93,1.159-8.659-1.705-9.379-7.503l-14.043-7.493
						c-0.733,3.206-1.131,6.391-1.131,9.452c0,2.694,0.313,5.114,0.887,7.249l22.735,12.131
						C208.535,176.252,208.846,176.132,209.159,176.006z"/>
					<path style="fill:#FFD600;" d="M199.715,151.295c0.208-2.671,0.921-5.464,2.014-8.165v-0.414l-12.081-6.446
						c-1.222,2.624-2.254,5.317-3.058,8.022L199.715,151.295z"/>
					<path style="fill:#FFD600;" d="M198.204,138.506v-2.409l-6.69-3.505c-0.343,0.624-0.674,1.253-0.995,1.888L198.204,138.506z"/>
					<path style="fill:#FFD600;" d="M207.864,128.214v-2.409l-8.424-4.413c-0.488,0.538-0.965,1.093-1.436,1.657L207.864,128.214z"
						/>
				</g>
				<g>
					<path style="fill:#FFE300;" d="M215.516,162.42c-7.37,4.371-13.345,0.78-13.345-8.021c0-8.802,5.975-19.481,13.345-23.852
						c7.371-4.371,13.346-0.78,13.346,8.021C228.861,147.369,222.887,158.048,215.516,162.42z"/>
				</g>
				<g>
					<path style="fill:#FF7C00;" d="M239.89,132.279c0-16.075-10.913-22.634-24.374-14.65
						c-13.461,7.984-24.374,27.489-24.374,43.564s10.912,22.635,24.374,14.65C228.977,167.859,239.89,148.355,239.89,132.279z
						 M202.171,154.652c0-8.802,5.975-19.481,13.345-23.852c7.371-4.372,13.346-0.781,13.346,8.021
						c0,8.802-5.975,19.48-13.346,23.852C208.146,167.045,202.171,163.453,202.171,154.652z"/>
				</g>
				<g>
					<path style="fill:#FFAE00;" d="M235.226,134.792c0-12.999-8.825-18.303-19.71-11.847c-10.885,6.457-19.71,22.229-19.71,35.228
						c0,12.999,8.825,18.303,19.71,11.847C226.402,163.564,235.226,147.792,235.226,134.792z"/>
				</g>
				<path style="fill:#FFD900;" d="M228.397,121.035l-32.196,32.196c-0.259,1.675-0.395,3.33-0.395,4.942
					c0,5.097,1.361,9.004,3.666,11.489l35.735-35.735C235,127.288,232.405,122.796,228.397,121.035z M207.587,172.735
					c6.735-6.553,16.309-16.253,25.317-25.477c0.824-2.326,1.446-4.68,1.838-7.001l-31.806,31.806
					C204.335,172.62,205.9,172.849,207.587,172.735z"/>
			</g>
			<g>
				<path style="fill:#FF7C00;" d="M225.33,144.382c0,2.469-0.616,4.9-1.849,7.292c-1.233,2.392-2.727,4.468-4.48,6.227v3.04
					c0,0.601-0.014,1.071-0.041,1.407c-0.028,0.337-0.117,0.751-0.267,1.241c-0.151,0.49-0.398,0.94-0.74,1.349
					c-0.343,0.409-0.801,0.825-1.377,1.246c-0.575,0.421-1.035,0.678-1.377,0.771c-0.343,0.092-0.582-0.009-0.719-0.304
					c-0.137-0.295-0.22-0.583-0.247-0.864c-0.027-0.281-0.041-0.738-0.041-1.371v-2.945c-1.124,0.538-2.137,0.806-3.041,0.803
					c-0.904-0.003-1.535-0.126-1.891-0.372l-0.534-0.416c-0.575-0.434-0.863-0.887-0.863-1.363c0-0.791,0.466-2.051,1.397-3.778
					c0.548-1.003,1.109-1.716,1.685-2.137c0.658-0.482,1.465-0.519,2.425-0.114l0.206,0.087c0.849,0.582,1.808,0.48,2.877-0.303
					c2.027-1.485,3.041-3.193,3.041-5.125c0-0.696-0.384-0.954-1.15-0.772c-0.768,0.182-1.699,0.525-2.795,1.027
					c-1.096,0.502-2.192,0.902-3.288,1.198c-1.096,0.297-2.028,0.109-2.795-0.565c-0.767-0.673-1.15-1.975-1.15-3.907
					c0-1.868,0.52-3.943,1.561-6.226c1.041-2.283,2.48-4.318,4.315-6.106v-2.66c0-0.633,0.014-1.109,0.041-1.431
					c0.027-0.32,0.109-0.721,0.247-1.202c0.137-0.48,0.384-0.929,0.74-1.349c0.356-0.419,0.822-0.84,1.397-1.262
					c0.74-0.542,1.295-0.766,1.664-0.673c0.37,0.093,0.582,0.327,0.637,0.697c0.055,0.371,0.082,0.954,0.082,1.745v2.66
					c0.767-0.372,1.466-0.614,2.096-0.729c0.63-0.113,1.068-0.149,1.315-0.108l0.37,0.109l0.165,0.022
					c0.684,0.228,1.027,0.561,1.027,1.005c0,0.507-0.275,1.436-0.822,2.787c-0.74,1.809-1.493,2.994-2.26,3.556
					c-0.493,0.361-1.055,0.52-1.685,0.475c-0.055-0.022-0.179-0.059-0.37-0.109c-0.192-0.049-0.37-0.077-0.534-0.084
					c-0.164-0.006-0.425,0.067-0.781,0.216c-0.357,0.151-0.781,0.406-1.274,0.767c-0.521,0.382-1.014,0.941-1.48,1.678
					c-0.466,0.738-0.699,1.423-0.699,2.055c0,0.76,0.281,1.148,0.843,1.164c0.561,0.016,1.254-0.206,2.075-0.665
					c0.822-0.46,1.726-0.885,2.713-1.275c0.986-0.39,1.89-0.664,2.712-0.823c0.822-0.158,1.514,0.118,2.076,0.83
					C225.049,141.508,225.33,142.703,225.33,144.382z"/>
			</g>
		</g>
		<g>
			<polygon style="fill:#FFBC00;" points="441.584,298.485 314.379,372.433 304.998,367.024 432.202,293.075 			"/>
			<polygon style="fill:#FFD600;" points="408.584,315.044 342.846,353.26 337.998,350.464 403.736,312.249 			"/>
			<polygon style="fill:#D0D9FF;" points="441.968,310.861 314.763,385.247 294.044,391.961 305.382,378.273 433.059,305.133 			"/>
			<polygon style="fill:#9FC9FF;" points="429.461,305.525 441.584,298.485 432.202,293.075 420.079,300.116 			"/>
			<polygon style="fill:#BBE7FF;" points="422.067,298.962 431.444,304.368 441.58,298.482 432.202,293.075 			"/>
			<polygon style="fill:#FFC08E;" points="314.379,372.433 291.38,385.823 304.998,367.024 			"/>
			<polygon style="fill:#00003B;" points="303.927,378.518 298.809,375.567 291.38,385.823 			"/>
			<polygon style="fill:#FFA16E;" points="314.379,372.433 314.379,383.397 291.38,385.823 			"/>
			<polygon style="fill:#000024;" points="303.927,384.5 303.927,378.518 298.261,381.711 291.38,385.823 			"/>
			<polygon style="fill:#FF7C00;" points="441.584,298.485 441.584,308.879 314.379,383.397 314.379,372.433 			"/>
			<polygon style="fill:#4C7FFF;" points="429.461,315.98 437.482,311.315 437.482,306.643 436.49,302.937 436.12,301.657 
				429.461,305.525 			"/>
			<polygon style="fill:#3956FF;" points="431.43,314.835 439.451,310.169 439.451,305.497 438.459,301.791 438.089,300.511 
				431.43,304.379 			"/>
			<polygon style="fill:#BE0E4B;" points="441.584,308.878 441.584,298.485 433.916,302.937 433.916,302.937 433.916,313.406 			"/>
			<polygon style="fill:#FF1576;" points="433.916,302.937 441.584,298.485 432.202,293.075 424.534,297.527 			"/>
		</g>
		<g>
			<polygon style="fill:#0474C4;" points="373.861,385.379 373.861,376.74 333.947,399.717 333.947,399.717 333.947,408.487 			"/>
			<polygon style="fill:#04A1FB;" points="333.947,399.717 373.861,376.74 357.6,367.364 317.686,390.341 			"/>
			<polygon style="fill:#0438C1;" points="333.955,408.487 317.686,398.587 317.686,390.341 333.955,399.719 			"/>
		</g>
		<g>
			<g>
				<polygon style="fill:#FC4900;" points="277.679,201.558 251.457,185.715 251.457,111.035 277.679,126.877 				"/>
				<polygon style="fill:#FFAF00;" points="273.001,191.905 256.135,181.715 256.135,120.904 273.001,131.093 				"/>
				<polygon style="fill:#DE3000;" points="326.83,72.667 326.83,83.077 315.857,89.792 269.02,118.667 261.801,115.142 
					258.108,111.035 				"/>
				<polygon style="fill:#D8F1FF;" points="261.08,114.63 277.777,124.718 341.112,89.121 322.579,79.55 				"/>
				<polygon style="fill:#FFAF00;" points="277.679,201.558 349.635,161.11 349.635,86.43 277.679,126.877 				"/>
				<polygon style="fill:#FF182A;" points="317.273,173.705 343.179,159.143 343.179,151.868 317.273,166.43 				"/>
				<polygon style="fill:#FF182A;" points="317.273,162.787 343.179,148.224 343.179,145.06 317.273,159.623 				"/>
				<polygon style="fill:#FF7700;" points="344.798,83.524 277.777,121.193 261.08,111.105 326.83,72.667 322.038,69.771 
					251.457,111.035 277.685,126.883 349.635,86.446 				"/>
			</g>
			<g>
				<polygon style="fill:#000F6C;" points="313.657,221.839 287.434,205.997 287.434,95.659 313.657,111.501 				"/>
				<polygon style="fill:#FF182A;" points="310.363,189.096 290.728,177.233 290.728,170.093 310.363,181.955 				"/>
				<polygon style="fill:#0023C0;" points="310.363,200.881 290.728,189.019 290.728,181.878 310.363,193.741 				"/>
				<polygon style="fill:#001897;" points="362.807,57.29 362.807,67.701 351.834,74.416 304.997,103.291 297.779,99.765 
					294.085,95.659 				"/>
				<polygon style="fill:#D8F1FF;" points="297.058,99.254 313.754,109.342 377.089,73.744 358.556,64.173 				"/>
				<polygon style="fill:#FFAF00;" points="346.472,183.274 392.911,157.17 392.911,91.225 346.472,117.329 				"/>
				<polygon style="fill:#FF182A;" points="365.248,187.758 400.184,168.12 400.184,118.508 365.248,138.147 				"/>
				<polygon style="fill:#0023C0;" points="313.657,221.839 385.612,181.392 385.612,71.053 313.657,111.501 				"/>
				<polygon style="fill:#0016A9;" points="313.657,185.876 385.612,145.428 385.612,71.053 313.657,111.501 				"/>
				<path style="fill:#0074FF;" d="M367.586,106.293v-5.86c0,0-20.286,11.53-20.536,11.673c-0.251,0.142-7.513,3.88-9.433,8.292
					c-1.92,4.412-3.339,10.102-3.339,10.102l1.586-0.902c0,0,2.087-5.679,4.591-7.786l4.174-2.372c0,0,0.584,7.879-2.338,16.715
					c-2.922,8.836-5.844,12.841-4.842,16.374c1.002,3.533,7.43,0.54,8.849-11.048c1.419-11.588,1.503-24.137,1.503-24.137
					l7.096-4.033l-1.085,24.515c0,0-1.002,7.144,5.677,4.227c6.678-2.917,8.098-15.346,8.098-15.346l-1.503,0.854
					c0,0,0.083,4.836-3.673,6.874c-3.757,2.038-4.091-3.047-4.007-7.001c0.083-3.954,1.169-16.78,1.169-16.78L367.586,106.293z"/>
				<polygon style="fill:#003BF2;" points="380.776,68.147 313.754,105.816 297.058,95.728 362.807,57.29 358.016,54.395 
					287.434,95.659 313.663,111.507 385.612,71.07 				"/>
			</g>
		</g>
		<g>
			<path style="fill:#00EEC4;" d="M301.74,132.387v97.578l79.63,47.964L301.74,132.387z M313.965,183.688l32.832,60.008
				l-32.832-19.776V183.688z"/>
			<polygon style="fill:#62FFE5;" points="301.74,133.278 301.74,140.549 374.802,273.973 380.736,277.547 			"/>
			<polygon style="fill:#00C3CB;" points="301.74,127.782 301.74,139.659 375.436,274.355 384.619,279.886 			"/>
		</g>
		<g>
			<g>
				<polygon style="fill:#C30000;" points="130.611,341.923 114.929,351.186 90.532,300.516 90.532,292.398 106.214,291.253 
					130.611,333.806 				"/>
				<polygon style="fill:#800000;" points="114.929,343.068 114.929,351.186 130.611,341.923 130.611,333.806 				"/>
				<path style="fill:#C30000;" d="M88.06,315.177c6.14,3.523,6.351,9.195,0.47,12.669s-15.626,3.433-21.766-0.09
					c-6.14-3.523-6.351-9.195-0.47-12.669S81.919,311.654,88.06,315.177z"/>
				<polygon style="fill:#C30000;" points="92.806,313.635 62.018,313.102 62.018,321.22 81.899,326.831 92.806,322.15 				"/>
				
					<ellipse transform="matrix(0.0252 -0.9997 0.9997 0.0252 -181.1395 457.6093)" style="fill:#C30000;" cx="144.086" cy="321.69" rx="8.953" ry="15.398"/>
				<polygon style="fill:#C30000;" points="128.686,313.573 159.478,313.573 159.478,321.83 128.686,321.22 				"/>
			</g>
			<g>
				<polygon style="fill:#FC0526;" points="130.611,333.806 114.929,343.068 90.532,292.398 106.214,283.136 				"/>
				
					<ellipse transform="matrix(0.0252 -0.9997 0.9997 0.0252 -237.7917 382.8253)" style="fill:#FC0526;" cx="77.412" cy="313.349" rx="8.953" ry="15.398"/>
				<path style="fill:#FC0526;" d="M154.734,307.284c6.14,3.523,6.351,9.195,0.47,12.669s-15.626,3.433-21.766-0.09
					c-6.14-3.523-6.351-9.195-0.47-12.669C138.848,303.72,148.594,303.761,154.734,307.284z"/>
			</g>
		</g>
		<g>
			<polygon style="fill:#FF9A00;" points="216.56,357.683 190.599,372.775 160.828,356.281 141.048,359.553 141.048,367.78 
				170.818,384.274 144.857,391.14 144.857,399.366 167.539,411.934 193.501,396.841 223.272,413.336 243.052,401.837 
				243.052,393.61 213.281,385.342 239.243,370.25 239.243,362.023 			"/>
			<polygon style="fill:#FFCC00;" points="216.56,349.456 190.599,364.548 160.828,348.054 141.048,359.553 170.818,376.047 
				144.857,391.14 167.539,403.707 193.501,388.615 223.272,405.109 243.052,393.61 213.281,377.116 239.243,362.023 			"/>
			<polygon style="fill:#FF5000;" points="167.539,403.707 167.539,411.934 144.857,399.366 144.857,391.14 			"/>
			<polygon style="fill:#FF5000;" points="243.052,393.61 223.272,405.109 223.272,413.336 243.052,401.837 			"/>
		</g>
		<g>
			<polygon style="fill:#0474C4;" points="127.946,379.444 120.393,399.726 96.268,404.162 86.75,415.034 90.514,419.616 
				114.639,415.18 103.323,430.881 107.087,435.463 125.468,432.083 133.021,411.8 157.146,407.365 162.9,391.911 159.136,387.33 
				138.775,396.347 146.327,376.064 142.563,371.483 			"/>
			<polygon style="fill:#04A1FB;" points="124.182,374.863 116.63,395.145 92.504,399.581 86.75,415.034 110.875,410.599 
				103.323,430.881 121.704,427.502 129.257,407.219 153.382,402.783 159.136,387.33 135.011,391.766 142.563,371.483 			"/>
			<polygon style="fill:#0438C1;" points="121.704,427.502 125.468,432.083 107.087,435.463 103.323,430.881 			"/>
			<polygon style="fill:#0438C1;" points="159.136,387.33 153.382,402.783 157.146,407.365 162.9,391.911 			"/>
		</g>
		<g>
			<g>
				<g>
					<polygon style="fill:#042750;" points="274.092,373.135 78.11,259.723 191.318,194.385 387.299,307.796 					"/>
					<polygon style="fill:#044A88;" points="274.092,362.701 78.11,249.289 191.318,183.951 387.299,297.363 					"/>
					<polygon style="fill:#041431;" points="387.299,297.363 387.299,307.796 274.079,373.147 274.079,362.713 					"/>
					<polygon style="fill:#043077;" points="78.097,249.302 78.097,259.735 274.079,373.147 274.079,362.713 					"/>
				</g>
				<polygon style="fill:#045A9A;" points="244.359,214.645 191.318,183.951 78.097,249.302 131.138,279.996 				"/>
				<polygon style="fill:#041431;" points="229.403,213.104 192.345,191.659 93.053,249.129 130.111,270.574 				"/>
				<polygon style="fill:#D2F2FF;" points="224.413,213.264 192.161,194.6 98.687,248.973 130.94,267.638 				"/>
				<g>
					<polygon style="fill:#F2FFFF;" points="131.008,230.214 110.919,241.874 175.329,241.874 195.418,230.214 					"/>
					<polygon style="fill:#F2FFFF;" points="142.097,223.778 206.507,223.778 224.413,213.264 203.395,201.101 182.276,200.458 
											"/>
					
						<text transform="matrix(0.8384 -0.4855 0.862 0.5069 193.0272 225.5223)" style="fill:#80B7D5; font-family:'JosefinSans-Bold'; font-size:37.5141px; letter-spacing:-3.096;">0.</text>
					<polygon style="fill:#F2FFFF;" points="145.195,259.364 155.24,253.534 106.568,253.534 116.643,259.364 					"/>
				</g>
				<g>
					<g>
						<polygon style="fill:#C30000;" points="186.087,280.317 167.489,291.206 147.568,279.705 147.568,276.466 166.166,268.816 
							186.087,277.077 						"/>
						<polygon style="fill:#FC0526;" points="186.087,277.077 167.489,287.966 147.568,276.466 166.166,265.577 						"/>
						<polygon style="fill:#D80516;" points="182.582,277.021 167.368,285.928 151.073,276.521 166.286,267.614 						"/>
					</g>
					<g>
						<polygon style="fill:#C30000;" points="210.77,265.882 192.172,276.771 172.251,265.271 172.251,262.031 190.849,254.382 
							210.77,262.642 						"/>
						<polygon style="fill:#FC0526;" points="210.77,262.642 192.172,273.531 172.251,262.031 190.849,251.142 						"/>
						<polygon style="fill:#D80516;" points="207.265,262.587 192.051,271.494 175.756,262.087 190.969,253.18 						"/>
					</g>
					<g>
						<polygon style="fill:#3669BF;" points="235.453,251.448 216.855,262.337 196.934,250.837 196.934,247.597 215.531,239.948 
							235.453,248.208 						"/>
						<polygon style="fill:#5096DE;" points="235.453,248.208 216.855,259.097 196.934,247.597 215.531,236.708 						"/>
						<polygon style="fill:#7CC3F4;" points="231.948,248.152 216.734,257.059 200.439,247.652 215.652,238.745 						"/>
					</g>
					<g>
						<polygon style="fill:#3669BF;" points="260.136,237.013 241.538,247.902 221.617,236.402 221.617,233.162 240.214,225.513 
							260.136,233.773 						"/>
						<polygon style="fill:#5096DE;" points="260.136,233.773 241.538,244.662 221.617,233.162 240.214,222.273 						"/>
						<polygon style="fill:#7CC3F4;" points="256.63,233.718 241.417,242.625 225.122,233.218 240.335,224.311 						"/>
					</g>
				</g>
				<g>
					<g>
						<polygon style="fill:#89ABFF;" points="212.248,295.539 193.65,306.428 173.729,294.928 173.729,291.688 192.326,284.039 
							212.248,292.299 						"/>
						<polygon style="fill:#B3D4FF;" points="212.248,292.299 193.65,303.188 173.729,291.688 192.326,280.799 						"/>
						<polygon style="fill:#D4EAFF;" points="208.742,292.243 193.529,301.151 177.234,291.743 192.447,282.836 						"/>
					</g>
					<g>
						<polygon style="fill:#89ABFF;" points="236.931,281.105 218.333,291.993 198.411,280.493 198.411,277.253 217.009,269.604 
							236.931,277.865 						"/>
						<polygon style="fill:#B3D4FF;" points="236.931,277.865 218.333,288.754 198.411,277.253 217.009,266.365 						"/>
						<polygon style="fill:#D4EAFF;" points="233.425,277.809 218.212,286.716 201.917,277.309 217.13,268.402 						"/>
					</g>
					<g>
						<polygon style="fill:#89ABFF;" points="261.614,266.67 243.016,277.559 223.094,266.059 223.094,262.819 241.692,255.17 
							261.614,263.43 						"/>
						<polygon style="fill:#B3D4FF;" points="261.614,263.43 243.016,274.319 223.094,262.819 241.692,251.93 						"/>
						<polygon style="fill:#D4EAFF;" points="258.108,263.375 242.895,272.282 226.6,262.875 241.813,253.967 						"/>
					</g>
					<g>
						<polygon style="fill:#3669BF;" points="286.297,252.236 267.698,263.125 247.777,251.624 247.777,248.384 266.375,240.735 
							286.297,248.996 						"/>
						<polygon style="fill:#5096DE;" points="286.297,248.996 267.698,259.885 247.777,248.384 266.375,237.496 						"/>
						<polygon style="fill:#7CC3F4;" points="282.791,248.94 267.578,257.847 251.283,248.44 266.496,239.533 						"/>
					</g>
				</g>
				<g>
					<g>
						<polygon style="fill:#89ABFF;" points="238.408,310.761 219.811,321.65 199.889,310.15 199.889,306.91 218.487,299.261 
							238.408,307.522 						"/>
						<polygon style="fill:#B3D4FF;" points="238.408,307.522 219.811,318.41 199.889,306.91 218.487,296.021 						"/>
						<polygon style="fill:#D4EAFF;" points="234.903,307.466 219.69,316.373 203.395,306.966 218.608,298.059 						"/>
					</g>
					<g>
						<polygon style="fill:#89ABFF;" points="263.091,296.327 244.493,307.216 224.572,295.716 224.572,292.476 243.17,284.827 
							263.091,293.087 						"/>
						<polygon style="fill:#B3D4FF;" points="263.091,293.087 244.493,303.976 224.572,292.476 243.17,281.587 						"/>
						<polygon style="fill:#D4EAFF;" points="259.586,293.031 244.373,301.939 228.077,292.531 243.291,283.624 						"/>
					</g>
					<g>
						<polygon style="fill:#89ABFF;" points="287.774,281.892 269.176,292.781 249.255,281.281 249.255,278.041 267.853,270.392 
							287.774,278.652 						"/>
						<polygon style="fill:#B3D4FF;" points="287.774,278.652 269.176,289.542 249.255,278.041 267.853,267.152 						"/>
						<polygon style="fill:#D4EAFF;" points="284.269,278.597 269.056,287.504 252.76,278.097 267.974,269.19 						"/>
					</g>
					<g>
						<polygon style="fill:#3669BF;" points="312.457,267.458 293.859,278.347 273.938,266.847 273.938,263.607 292.536,255.958 
							312.457,264.218 						"/>
						<polygon style="fill:#5096DE;" points="312.457,264.218 293.859,275.107 273.938,263.607 292.536,252.718 						"/>
						<polygon style="fill:#7CC3F4;" points="308.952,264.162 293.739,273.07 277.443,263.662 292.656,254.755 						"/>
					</g>
				</g>
				<g>
					<g>
						<polygon style="fill:#89ABFF;" points="264.569,325.984 245.971,336.873 226.05,325.372 226.05,322.133 244.648,314.483 
							264.569,322.744 						"/>
						<polygon style="fill:#B3D4FF;" points="264.569,322.744 245.971,333.633 226.05,322.133 244.648,311.244 						"/>
						<polygon style="fill:#D4EAFF;" points="261.064,322.688 245.851,331.595 229.555,322.188 244.768,313.281 						"/>
					</g>
					<g>
						<polygon style="fill:#89ABFF;" points="289.252,311.549 270.654,322.438 250.733,310.938 250.733,307.698 269.331,300.049 
							289.252,308.309 						"/>
						<polygon style="fill:#B3D4FF;" points="289.252,308.309 270.654,319.198 250.733,307.698 269.331,296.809 						"/>
						<polygon style="fill:#D4EAFF;" points="285.747,308.254 270.534,317.161 254.238,307.754 269.451,298.846 						"/>
					</g>
					<g>
						<polygon style="fill:#89ABFF;" points="313.935,297.115 295.337,308.004 275.416,296.504 275.416,293.264 294.014,285.615 
							313.935,293.875 						"/>
						<polygon style="fill:#B3D4FF;" points="313.935,293.875 295.337,304.764 275.416,293.264 294.014,282.375 						"/>
						<polygon style="fill:#D4EAFF;" points="310.43,293.819 295.217,302.726 278.921,293.319 294.134,284.412 						"/>
					</g>
					<g>
						<polygon style="fill:#FF7D00;" points="364.833,297.8 346.235,308.689 299.978,282.069 299.978,278.829 318.576,271.18 
							364.833,294.56 						"/>
						<polygon style="fill:#FFAF00;" points="364.954,294.56 346.356,305.449 300.099,278.829 318.697,267.94 						"/>
						<polygon style="fill:#FFCC00;" points="361.206,294.218 345.993,303.125 303.604,278.885 318.817,269.978 						"/>
					</g>
				</g>
				<g>
					<g>
						<polygon style="fill:#89ABFF;" points="290.73,341.206 272.132,352.095 252.211,340.595 252.211,337.355 270.809,329.706 
							290.73,337.966 						"/>
						<polygon style="fill:#B3D4FF;" points="290.73,337.966 272.132,348.855 252.211,337.355 270.809,326.466 						"/>
						<polygon style="fill:#D4EAFF;" points="287.225,337.91 272.012,346.818 255.716,337.41 270.929,328.503 						"/>
					</g>
					<g>
						<polygon style="fill:#89ABFF;" points="315.413,326.772 296.815,337.66 276.894,326.16 276.894,322.92 295.492,315.271 
							315.413,323.532 						"/>
						<polygon style="fill:#B3D4FF;" points="315.413,323.532 296.815,334.421 276.894,322.92 295.492,312.031 						"/>
						<polygon style="fill:#D4EAFF;" points="311.908,323.476 296.695,332.383 280.399,322.976 295.612,314.069 						"/>
					</g>
					<g>
						<polygon style="fill:#89ABFF;" points="340.096,312.337 321.498,323.226 301.577,311.726 301.577,308.486 320.175,300.837 
							340.096,309.097 						"/>
						<polygon style="fill:#B3D4FF;" points="340.096,309.097 321.498,319.986 301.577,308.486 320.175,297.597 						"/>
						<polygon style="fill:#D4EAFF;" points="336.591,309.042 321.378,317.949 305.082,308.542 320.295,299.634 						"/>
					</g>
				</g>
			</g>
			<g>
				
					<text transform="matrix(0.8384 -0.4855 0.862 0.5069 164.0377 282.384)" style="fill:#FFFFFF; font-family:'JosefinSans-Bold'; font-size:10.8995px;">AC</text>
				
					<text transform="matrix(0.8384 -0.4855 0.862 0.5069 191.5493 266.878)" style="fill:#FFFFFF; font-family:'JosefinSans-Bold'; font-size:13.6677px;">C</text>
				
					<text transform="matrix(0.8384 -0.4855 0.862 0.5069 241.7409 236.5706)" style="fill:#FFFFFF; font-family:'JosefinSans-Bold'; font-size:9.7871px;">X</text>
				
					<text transform="matrix(0.8385 -0.4855 0.862 0.5069 332.4199 289.9867)" style="fill:#FFFFFF; font-family:'JosefinSans-Bold'; font-size:17.1858px;">+</text>
				
					<text transform="matrix(0.8385 -0.4855 0.862 0.5069 289.2669 266.4163)" style="fill:#FFFFFF; font-family:'JosefinSans-Bold'; font-size:17.1858px;">_</text>
				<g>
					<path style="fill:#FFFFFF;" d="M271.649,246.921l-6.606,3.825l-1.673-0.984l6.606-3.825L271.649,246.921z"/>
				</g>
				<path style="fill:#FFFFFF;" d="M265.995,245.76c0.619,0.355,0.64,0.927,0.047,1.277c-0.593,0.35-1.575,0.346-2.193-0.009
					c-0.619-0.355-0.64-0.927-0.047-1.277C264.395,245.401,265.376,245.405,265.995,245.76z"/>
				<path style="fill:#FFFFFF;" d="M272.173,249.366c0.619,0.355,0.64,0.927,0.047,1.277c-0.593,0.35-1.575,0.346-2.194-0.009
					c-0.619-0.355-0.64-0.927-0.047-1.277C270.572,249.007,271.554,249.011,272.173,249.366z"/>
				<text transform="matrix(0.8385 -0.4855 0.862 0.5069 213.694 251.0527)"><tspan x="0" y="0" style="fill:#FFFFFF; font-family:'JosefinSans-Bold'; font-size:17.1858px;">+</tspan><tspan x="-0.498" y="3.347" style="fill:#FFFFFF; font-family:'JosefinSans-Bold'; font-size:17.1858px;">_</tspan></text>
				
					<text transform="matrix(0.8385 -0.4855 0.862 0.5069 195.2431 296.8608)" style="fill:#FFFFFF; font-family:'JosefinSans-Bold'; font-size:17.1858px;">7</text>
				
					<text transform="matrix(0.8385 -0.4855 0.862 0.5069 219.7039 282.4265)" style="fill:#FFFFFF; font-family:'JosefinSans-Bold'; font-size:17.1858px;">8</text>
				
					<text transform="matrix(0.8385 -0.4855 0.862 0.5069 243.8583 267.9057)" style="fill:#FFFFFF; font-family:'JosefinSans-Bold'; font-size:17.1858px;">9</text>
				
					<text transform="matrix(0.8385 -0.4855 0.862 0.5069 219.7037 312.0833)" style="fill:#FFFFFF; font-family:'JosefinSans-Bold'; font-size:17.1858px;">4</text>
				
					<text transform="matrix(0.8385 -0.4855 0.862 0.5069 245.9982 297.4151)" style="fill:#FFFFFF; font-family:'JosefinSans-Bold'; font-size:17.1858px;">5</text>
				
					<text transform="matrix(0.8385 -0.4855 0.862 0.5069 268.7424 283.1909)" style="fill:#FFFFFF; font-family:'JosefinSans-Bold'; font-size:17.1858px;">6</text>
				
					<text transform="matrix(0.8385 -0.4855 0.862 0.5069 249.27 326.0432)" style="fill:#FFFFFF; font-family:'JosefinSans-Bold'; font-size:17.1858px;">1</text>
				
					<text transform="matrix(0.8385 -0.4855 0.862 0.5069 271.4848 312.8403)" style="fill:#FFFFFF; font-family:'JosefinSans-Bold'; font-size:17.1858px;">2</text>
				
					<text transform="matrix(0.8385 -0.4855 0.862 0.5069 296.1946 298.2714)" style="fill:#FFFFFF; font-family:'JosefinSans-Bold'; font-size:17.1858px;">3</text>
				
					<text transform="matrix(0.8385 -0.4855 0.862 0.5069 272.7838 343.2296)" style="fill:#FFFFFF; font-family:'JosefinSans-Bold'; font-size:17.1858px;">0</text>
				
					<text transform="matrix(0.8385 -0.4855 0.862 0.5069 296.1676 324.3885)" style="fill:#FFFFFF; font-family:'JosefinSans-Bold'; font-size:17.1858px;">.</text>
				
					<text transform="matrix(0.8385 -0.4855 0.862 0.5069 319.304 313.5196)" style="fill:#FFFFFF; font-family:'JosefinSans-Bold'; font-size:17.1858px;">=</text>
			</g>
		</g>
	</g>
</g>
<g id="DESIGNED_BY_FREEPIK">
	<g>
		<g id="XMLID_29_">
			<g id="XMLID_48_">
				<path id="XMLID_56_" style="fill:#3C3C3B;" d="M260.104,474.538c-0.432,0.443-0.803,0.931-1.108,1.453l-0.465-0.241
					c-0.067-0.298-0.349-0.503-0.659-0.466c-0.331,0.039-0.568,0.339-0.529,0.67s0.339,0.568,0.67,0.529
					c0.065-0.008,0.127-0.026,0.184-0.052l0.451,0.234c-0.251,0.554-0.433,1.139-0.539,1.744l0.747,0.132
					c0.23-1.306,0.85-2.507,1.792-3.473L260.104,474.538z"/>
				<path id="XMLID_55_" style="fill:#3C3C3B;" d="M265.592,472.236c-0.171,0-0.341,0.006-0.51,0.017l-0.074-0.626
					c0.188-0.149,0.296-0.389,0.266-0.645c-0.046-0.393-0.402-0.674-0.795-0.628c-0.393,0.046-0.674,0.402-0.628,0.795
					c0.03,0.254,0.189,0.461,0.405,0.564l0.073,0.624c-0.714,0.116-1.403,0.332-2.06,0.646l0.327,0.684
					c0.934-0.447,1.942-0.673,2.995-0.673c0.496,0,0.993,0.053,1.475,0.158l0.161-0.741
					C266.692,472.295,266.142,472.236,265.592,472.236z"/>
				<path id="XMLID_54_" style="fill:#3C3C3B;" d="M272.194,474.783c0.331-0.04,0.566-0.341,0.525-0.672
					c-0.04-0.331-0.341-0.566-0.672-0.526c-0.309,0.038-0.535,0.304-0.53,0.609l-0.416,0.363c-0.418-0.43-0.89-0.813-1.408-1.139
					l-0.404,0.641c1.134,0.715,2.021,1.726,2.563,2.925l0.691-0.313c-0.251-0.554-0.568-1.072-0.942-1.545l0.402-0.351
					C272.065,474.788,272.129,474.791,272.194,474.783z"/>
				<path id="XMLID_53_" style="fill:#3C3C3B;" d="M265.044,482.444c-0.386,0.023-0.775,0.035-1.157,0.035
					c-0.88,0-1.733-0.061-2.478-0.179c-0.39-0.062-0.846-0.155-1.27-0.292c1.046,1.861,3.069,3.125,5.388,3.125
					c2.855,0,5.262-1.916,5.95-4.504c-0.682,0.449-1.506,0.825-2.459,1.123C267.839,482.12,266.463,482.359,265.044,482.444z"/>
				<path id="XMLID_49_" style="fill:#3C3C3B;" d="M265.592,473.752c-3.352,0-6.08,2.666-6.08,5.943
					c0,0.426,0.046,0.849,0.137,1.261c0.674,0.483,2.706,0.89,5.348,0.731c2.879-0.173,5.297-0.957,6.672-2.159
					c-0.005-0.195-0.021-0.39-0.045-0.582C271.244,475.986,268.65,473.752,265.592,473.752z M263.432,480.267
					c-1.02,0-1.85-0.83-1.85-1.85c0-1.02,0.83-1.85,1.85-1.85c1.02,0,1.85,0.83,1.85,1.85
					C265.282,479.437,264.452,480.267,263.432,480.267z M268.17,479.359c-0.75,0-1.36-0.61-1.36-1.36s0.61-1.361,1.36-1.361
					c0.75,0,1.361,0.61,1.361,1.361S268.92,479.359,268.17,479.359z"/>
			</g>
			<path id="XMLID_46_" style="fill:#3C3C3B;" d="M281.595,475.619c-0.295-0.116-0.806-0.309-1.382-0.237
				c-0.551,0.069-0.844,0.341-0.844,1.007v0.866h2.228v1.717h-2.228v5.455h-1.932v-5.455h-1.34v-1.717h1.34v-0.888
				c0-1.68,0.896-2.783,2.568-2.783c0.642,0,1.157,0.122,1.59,0.308L281.595,475.619z"/>
			<path id="XMLID_44_" style="fill:#3C3C3B;" d="M286.298,478.951c-0.177-0.03-0.358-0.046-0.526-0.046
				c-0.896,0-1.51,0.548-1.51,1.613v3.908h-1.932v-7.172h1.873v0.785c0.451-0.673,1.14-0.977,2.021-0.977
				c0.414,0,0.848,0.128,1.094,0.337L286.298,478.951z"/>
			<path id="XMLID_41_" style="fill:#3C3C3B;" d="M293.965,480.829c0,0.222-0.015,0.489-0.037,0.651h-5.085
				c0.207,1.036,0.933,1.488,1.843,1.488c0.622,0,1.295-0.252,1.813-0.688l1.132,1.243c-0.814,0.748-1.85,1.088-3.057,1.088
				c-2.198,0-3.723-1.495-3.723-3.753c0-2.258,1.48-3.797,3.627-3.797C292.544,477.062,293.958,478.594,293.965,480.829z
				 M288.851,480.163h3.175c-0.177-0.918-0.733-1.436-1.562-1.436C289.554,478.727,289.021,479.275,288.851,480.163z"/>
			<path id="XMLID_38_" style="fill:#3C3C3B;" d="M301.618,480.829c0,0.222-0.015,0.489-0.037,0.651h-5.085
				c0.207,1.036,0.932,1.488,1.843,1.488c0.622,0,1.295-0.252,1.813-0.688l1.132,1.243c-0.814,0.748-1.85,1.088-3.057,1.088
				c-2.198,0-3.723-1.495-3.723-3.753c0-2.258,1.48-3.797,3.627-3.797C300.197,477.062,301.611,478.594,301.618,480.829z
				 M296.504,480.163h3.175c-0.178-0.918-0.733-1.436-1.562-1.436C297.207,478.727,296.674,479.275,296.504,480.163z"/>
			<path id="XMLID_35_" style="fill:#3C3C3B;" d="M309.964,480.837c0,2.154-1.495,3.775-3.471,3.775
				c-0.962,0-1.643-0.378-2.109-0.933v3.708h-1.924v-10.133h1.887v0.792c0.466-0.585,1.155-0.984,2.139-0.984
				C308.469,477.062,309.964,478.683,309.964,480.837z M304.287,480.837c0,1.132,0.747,1.976,1.843,1.976
				c1.14,0,1.85-0.881,1.85-1.976c0-1.095-0.71-1.976-1.85-1.976C305.035,478.861,304.287,479.704,304.287,480.837z"/>
			<path id="XMLID_32_" style="fill:#3C3C3B;" d="M313.068,474.908c0,0.696-0.54,1.229-1.236,1.229
				c-0.696,0-1.229-0.533-1.229-1.229c0-0.696,0.533-1.243,1.229-1.243C312.527,473.665,313.068,474.213,313.068,474.908z
				 M312.809,484.427h-1.932v-7.172h1.932V484.427z"/>
			<path id="XMLID_30_" style="fill:#3C3C3B;" d="M316.032,479.808l2.702-2.554h2.368l-3.479,3.375l3.501,3.797h-2.376l-2.716-2.901
				v2.901H314.1v-10.658h1.932V479.808z"/>
		</g>
		<g>
			<path style="fill:#3C3C3B;" d="M184.412,484.362v-1.055c-0.527,0.718-1.391,1.23-2.387,1.23c-1.846,0-3.149-1.406-3.149-3.706
				c0-2.256,1.289-3.721,3.149-3.721c0.952,0,1.816,0.469,2.387,1.245v-3.765h1.099v9.77H184.412z M184.412,482.443v-3.208
				c-0.395-0.615-1.245-1.143-2.124-1.143c-1.421,0-2.27,1.172-2.27,2.739c0,1.567,0.85,2.724,2.27,2.724
				C183.167,483.556,184.017,483.058,184.412,482.443z"/>
			<path style="fill:#3C3C3B;" d="M186.932,480.817c0-2.051,1.465-3.706,3.486-3.706c2.139,0,3.398,1.67,3.398,3.794v0.279h-5.727
				c0.088,1.333,1.025,2.446,2.549,2.446c0.805,0,1.626-0.322,2.182-0.894l0.527,0.718c-0.703,0.703-1.655,1.084-2.812,1.084
				C188.44,484.537,186.932,483.029,186.932,480.817z M190.403,478.019c-1.509,0-2.256,1.274-2.314,2.358h4.644
				C192.718,479.323,192.014,478.019,190.403,478.019z"/>
			<path style="fill:#3C3C3B;" d="M194.607,483.424l0.571-0.791c0.469,0.542,1.362,1.011,2.329,1.011c1.084,0,1.67-0.513,1.67-1.216
				c0-1.714-4.38-0.659-4.38-3.281c0-1.098,0.952-2.036,2.636-2.036c1.201,0,2.051,0.454,2.622,1.026l-0.513,0.762
				c-0.424-0.513-1.201-0.894-2.109-0.894c-0.967,0-1.567,0.483-1.567,1.113c0,1.552,4.38,0.527,4.38,3.281
				c0,1.187-0.952,2.138-2.783,2.138C196.306,484.537,195.324,484.186,194.607,483.424z"/>
			<path style="fill:#3C3C3B;" d="M201.477,475.544c0-0.41,0.337-0.747,0.732-0.747c0.41,0,0.747,0.337,0.747,0.747
				c0,0.41-0.337,0.732-0.747,0.732C201.814,476.276,201.477,475.954,201.477,475.544z M201.667,484.362v-7.075h1.099v7.075H201.667
				z"/>
			<path style="fill:#3C3C3B;" d="M204.582,486.178l0.556-0.82c0.586,0.703,1.289,0.967,2.3,0.967c1.172,0,2.27-0.571,2.27-2.124
				v-1.011c-0.513,0.718-1.377,1.26-2.373,1.26c-1.845,0-3.149-1.377-3.149-3.662c0-2.27,1.289-3.677,3.149-3.677
				c0.952,0,1.802,0.469,2.373,1.245v-1.069h1.098v6.87c0,2.344-1.641,3.076-3.369,3.076
				C206.237,487.233,205.417,486.998,204.582,486.178z M209.709,482.326v-3.091c-0.381-0.615-1.23-1.143-2.109-1.143
				c-1.421,0-2.27,1.128-2.27,2.695c0,1.553,0.849,2.695,2.27,2.695C208.478,483.483,209.328,482.941,209.709,482.326z"/>
			<path style="fill:#3C3C3B;" d="M217.413,484.362v-4.629c0-1.245-0.63-1.641-1.582-1.641c-0.865,0-1.685,0.527-2.095,1.099v5.17
				h-1.099v-7.075h1.099v1.025c0.498-0.586,1.465-1.201,2.519-1.201c1.48,0,2.256,0.747,2.256,2.285v4.966H217.413z"/>
			<path style="fill:#3C3C3B;" d="M219.932,480.817c0-2.051,1.465-3.706,3.486-3.706c2.139,0,3.398,1.67,3.398,3.794v0.279h-5.727
				c0.088,1.333,1.025,2.446,2.549,2.446c0.806,0,1.626-0.322,2.183-0.894l0.527,0.718c-0.703,0.703-1.655,1.084-2.812,1.084
				C221.441,484.537,219.932,483.029,219.932,480.817z M223.404,478.019c-1.509,0-2.256,1.274-2.314,2.358h4.643
				C225.718,479.323,225.015,478.019,223.404,478.019z"/>
			<path style="fill:#3C3C3B;" d="M233.35,484.362v-1.055c-0.527,0.718-1.391,1.23-2.388,1.23c-1.846,0-3.149-1.406-3.149-3.706
				c0-2.256,1.289-3.721,3.149-3.721c0.952,0,1.817,0.469,2.388,1.245v-3.765h1.098v9.77H233.35z M233.35,482.443v-3.208
				c-0.396-0.615-1.245-1.143-2.124-1.143c-1.421,0-2.27,1.172-2.27,2.739c0,1.567,0.849,2.724,2.27,2.724
				C232.105,483.556,232.954,483.058,233.35,482.443z"/>
			<path style="fill:#3C3C3B;" d="M239.692,484.362v-9.77h1.099v3.765c0.572-0.776,1.421-1.245,2.388-1.245
				c1.845,0,3.149,1.465,3.149,3.721c0,2.299-1.304,3.706-3.149,3.706c-0.996,0-1.86-0.513-2.388-1.23v1.055H239.692z
				 M242.9,483.556c1.436,0,2.285-1.157,2.285-2.724c0-1.568-0.85-2.739-2.285-2.739c-0.864,0-1.728,0.527-2.109,1.143v3.208
				C241.171,483.058,242.036,483.556,242.9,483.556z"/>
			<path style="fill:#3C3C3B;" d="M247.528,486.134c0.161,0.073,0.425,0.117,0.601,0.117c0.483,0,0.805-0.161,1.055-0.747
				l0.469-1.069l-2.959-7.148h1.187l2.358,5.8l2.344-5.8h1.201l-3.545,8.51c-0.425,1.025-1.143,1.421-2.08,1.435
				c-0.234,0-0.601-0.044-0.805-0.103L247.528,486.134z"/>
		</g>
	</g>
</g>
</svg>
